<?xml version="1.0" encoding="UTF-8" standalone="no"?>
<!-- Created with Inkscape (http://www.inkscape.org/) -->

<svg
   width="400"
   height="248"
   viewBox="0 0 105.83333 65.616665"
   version="1.1"
   id="svg1"
   inkscape:version="1.4.2 (ebf0e940d0, 2025-05-08)"
   sodipodi:docname="cover.svg"
   inkscape:export-filename="cover-text.png"
   inkscape:export-xdpi="96"
   inkscape:export-ydpi="96"
   xmlns:inkscape="http://www.inkscape.org/namespaces/inkscape"
   xmlns:sodipodi="http://sodipodi.sourceforge.net/DTD/sodipodi-0.dtd"
   xmlns="http://www.w3.org/2000/svg"
   xmlns:svg="http://www.w3.org/2000/svg">
  <sodipodi:namedview
     id="namedview1"
     pagecolor="#ffffff"
     bordercolor="#000000"
     borderopacity="0.25"
     inkscape:showpageshadow="2"
     inkscape:pageopacity="0.0"
     inkscape:pagecheckerboard="0"
     inkscape:deskcolor="#d1d1d1"
     inkscape:document-units="px"
     showgrid="true"
     inkscape:zoom="1.7571604"
     inkscape:cx="219.67261"
     inkscape:cy="128.04751"
     inkscape:window-width="1596"
     inkscape:window-height="877"
     inkscape:window-x="0"
     inkscape:window-y="0"
     inkscape:window-maximized="1"
     inkscape:current-layer="layer1">
    <inkscape:grid
       id="grid3"
       units="px"
       originx="0"
       originy="0"
       spacingx="0.26458333"
       spacingy="0.26458333"
       empcolor="#000000"
       empopacity="1"
       color="#0099e5"
       opacity="0.14901961"
       empspacing="50"
       enabled="true"
       visible="true"
       dotted="false" />
    <inkscape:grid
       id="grid4"
       units="px"
       originx="0"
       originy="0"
       spacingx="0.26458333"
       spacingy="0.26458333"
       empcolor="#0099e5"
       empopacity="0.30196078"
       color="#0099e5"
       opacity="0.14901961"
       empspacing="5"
       enabled="true"
       visible="true" />
    <inkscape:grid
       id="grid5"
       units="px"
       originx="6.614583"
       originy="6.614583"
       spacingx="0.26458333"
       spacingy="0.26458333"
       empcolor="#ffff00"
       empopacity="0.30196078"
       color="#0099e5"
       opacity="0.14901961"
       empspacing="50"
       enabled="true"
       visible="true" />
    <inkscape:grid
       id="grid8"
       units="px"
       originx="0.66145831"
       originy="0.63499999"
       spacingx="0.26458333"
       spacingy="0.26458333"
       empcolor="#0099e5"
       empopacity="0.30196078"
       color="#0099e5"
       opacity="0.14901961"
       empspacing="5"
       enabled="true"
       visible="true"
       dotted="true" />
  </sodipodi:namedview>
  <defs
     id="defs1">
    <inkscape:path-effect
       effect="bend_path"
       id="path-effect19"
       is_visible="true"
       lpeversion="1"
       bendpath="m 46.302082,52.916665 v 6.614583"
       prop_scale="1"
       scale_y_rel="false"
       vertical="false"
       hide_knot="false" />
    <inkscape:path-effect
       effect="bend_path"
       id="path-effect17"
       is_visible="true"
       lpeversion="1"
       bendpath="m 46.302082,52.916665 v 6.614583"
       prop_scale="1"
       scale_y_rel="false"
       vertical="false"
       hide_knot="false" />
    <inkscape:path-effect
       effect="bend_path"
       id="path-effect16"
       is_visible="true"
       lpeversion="1"
       bendpath="M 39.687499,52.916665 H 52.916665"
       prop_scale="1"
       scale_y_rel="false"
       vertical="false"
       hide_knot="false" />
    <inkscape:path-effect
       effect="bend_path"
       id="path-effect14"
       is_visible="true"
       lpeversion="1"
       bendpath="M 39.687499,52.916665 H 52.916665"
       prop_scale="1"
       scale_y_rel="false"
       vertical="false"
       hide_knot="false" />
    <inkscape:path-effect
       effect="bend_path"
       id="path-effect12"
       is_visible="true"
       lpeversion="1"
       bendpath="M 26.458332,66.145829 H 39.687499"
       prop_scale="1"
       scale_y_rel="false"
       vertical="false"
       hide_knot="false" />
    <inkscape:path-effect
       effect="bend_path"
       id="path-effect10"
       is_visible="true"
       lpeversion="1"
       bendpath="M 26.458332,66.145829 H 39.687499"
       prop_scale="1"
       scale_y_rel="false"
       vertical="false"
       hide_knot="false" />
    <inkscape:path-effect
       effect="bend_path"
       id="path-effect9"
       is_visible="true"
       lpeversion="1"
       bendpath="m 26.458332,59.531248 6.614584,6.614581 6.614583,-6.614581"
       prop_scale="1"
       scale_y_rel="false"
       vertical="false"
       hide_knot="false" />
    <inkscape:path-effect
       effect="bend_path"
       id="path-effect7"
       is_visible="true"
       lpeversion="1"
       bendpath="m 26.458332,59.531248 6.614584,6.614581 6.614583,-6.614581"
       prop_scale="1"
       scale_y_rel="false"
       vertical="false"
       hide_knot="false" />
    <inkscape:path-effect
       effect="bend_path"
       id="path-effect6"
       is_visible="true"
       lpeversion="1"
       bendpath="m 35.718749,58.208331 3.96875,-5.291666"
       prop_scale="1"
       scale_y_rel="false"
       vertical="false"
       hide_knot="false" />
    <inkscape:path-effect
       effect="bend_path"
       id="path-effect4"
       is_visible="true"
       lpeversion="1"
       bendpath="m 35.718749,58.208331 3.96875,-5.291666"
       prop_scale="1"
       scale_y_rel="false"
       vertical="false"
       hide_knot="false" />
  </defs>
  <g
     inkscape:label="Layer 1"
     inkscape:groupmode="layer"
     id="layer1">
    <rect
       style="fill:#ffb700;fill-opacity:1;stroke:none;stroke-width:0.0226147;stroke-miterlimit:4;stroke-dasharray:none;stroke-opacity:1"
       id="rect65866"
       width="105.81339"
       height="65.447182"
       x="0.020051647"
       y="0.16948487" />
    <g
       id="g67425"
       transform="matrix(0.22613566,0,0,0.22619783,0.02155917,0.019288)">
      <path
         d="m 209.9856,119.43643 c -0.86801,1.08501 -3.25503,7.16106 -2.96569,7.4504 0.434,0.36167 49.11478,-3.8337 49.54879,-4.26771 0.28933,-0.217 0.0723,-1.22967 -0.36167,-2.24235 l -0.86801,-1.80835 h -22.35121 -22.3512 z"
         id="path65849"
         style="fill:#000000;stroke:none" />
      <path
         d="m 256.27936,125.58482 c -0.28933,0.0723 -11.79044,1.01267 -25.5339,2.02535 -13.74346,1.08501 -26.54658,2.09769 -28.57193,2.38702 l -3.6167,0.50634 -1.59135,3.3997 c -0.86801,1.88068 -1.80835,4.19537 -2.09768,5.20805 l -0.43401,1.80835 2.45936,-0.36167 c 1.30201,-0.21701 17.64949,-1.80835 36.31167,-3.54437 18.66217,-1.80835 34.06931,-3.32736 34.21398,-3.54437 0.14467,-0.14466 -0.50634,-2.09768 -1.51902,-4.34004 l -1.80835,-4.12303 -3.6167,0.217 c -2.02535,0.14467 -3.90603,0.28933 -4.19537,0.36167 z"
         id="path65851"
         style="fill:#000000;stroke:none" />
      <path
         d="m 261.84908,136.65192 c -2.96569,0.36167 -21.33853,2.09769 -40.79638,3.90604 l -35.37132,3.32736 -0.79568,0.72334 c -1.08501,0.86801 -5.13571,9.25875 -4.70171,9.69276 0.36167,0.36167 96.9999,-9.04175 97.57857,-9.47576 0.14467,-0.14467 -0.65101,-2.17002 -1.80835,-4.41237 l -2.17002,-4.12304 -3.25503,-0.0723 c -1.80835,-0.0723 -5.71439,0.14466 -8.68008,0.434 z"
         id="path65853"
         style="fill:#000000;stroke:none" />
      <path
         d="m 246.65894,150.39538 c -59.89255,5.78672 -74.93802,7.30573 -76.02303,7.6674 l -1.22968,0.36167 -2.17002,5.20805 c -1.22968,2.89336 -2.38702,5.78672 -2.60403,6.5824 l -0.434,1.30201 2.31469,-0.36167 c 1.30201,-0.217 29.72927,-3.11036 63.14758,-6.36539 33.41831,-3.32737 60.83289,-6.07606 60.97756,-6.14839 0.14467,-0.0723 -1.01267,-2.60403 -2.53169,-5.64206 l -2.67636,-5.49738 -5.13571,0.0723 c -2.74869,0.0723 -17.93883,1.30202 -33.63531,2.82103 z"
         id="path65855"
         style="fill:#000000;stroke:none" />
      <path
         d="m 289.336,160.95614 c -10.70543,1.44668 -129.62253,13.30946 -133.02223,13.30946 h -2.74869 l -2.89336,6.29306 -2.89336,6.36539 1.22968,0.217 c 0.72334,0.14467 8.24608,-0.434 16.70915,-1.22968 35.95,-3.47203 129.40553,-12.44144 133.96257,-12.87545 2.67636,-0.217 4.99105,-0.651 5.13572,-0.86801 0.36167,-0.57867 -3.32737,-9.76509 -4.55705,-11.21177 -1.08501,-1.30201 -0.72334,-1.30201 -10.92243,0 z"
         id="path65857"
         style="fill:#000000;stroke:none" />
      <path
         d="m 298.01608,175.78461 c -3.3997,0.43401 -21.62787,2.17002 -40.50704,3.97837 -73.34668,6.94407 -122.46146,11.79045 -122.60613,12.07978 -2.09769,4.19537 -6.07606,13.8158 -5.78672,14.10513 0.434,0.43401 189.87675,-15.55181 190.45542,-16.05815 0.217,-0.217 -1.08501,-3.6167 -2.89336,-7.4504 l -3.25503,-7.08873 -4.62937,-0.0723 c -2.53169,-0.0723 -7.37807,0.14466 -10.77777,0.50633 z"
         id="path65859"
         style="fill:#000000;stroke:none" />
      <path
         sodipodi:nodetypes="cccccccccccccccc"
         d="m 323.33298,192.1321 c -2.17002,0.14467 -43.97907,3.68903 -92.94919,7.81207 -48.89778,4.12304 -94.0342,7.88441 -100.18259,8.31841 -38.843358,2.82103 -91.647178,12.94779 -123.69114,23.72555 L -0.00715268,234.08582 0,290 h 468.00098 l -0.0264,-53.02082 -10.82374,-3.54437 C 427.56627,223.52505 391.90561,215.71298 354.0026,210.72194 l -15.26248,-2.02536 -2.74869,-7.52273 c -1.51901,-4.12304 -3.25503,-7.95674 -3.76137,-8.53541 l -1.01267,-1.01268 -1.95302,0.14467 c -1.08501,0.0723 -3.76137,0.217 -5.93139,0.36167 z"
         id="path65861"
         style="fill:#000000;stroke:none" />
    </g>
    <path
       style="fill:#91008c;fill-opacity:1;stroke:none;stroke-width:0.226147"
       id="path66651"
       d="m 0.01994057,49.936195 0.19625,-0.08182 C 1.3773515,49.428973 6.5126175,47.82552 8.4424336,47.285582 13.332384,45.960275 22.801558,44.078666 27.16817,43.587817 c 0.539696,-0.06541 1.01397,-0.163623 1.046682,-0.212713 0.04906,-0.06541 -0.09813,-0.703551 -0.310736,-1.439829 -1.177514,-4.074091 -1.177514,-8.982629 0.01635,-13.105799 1.831689,-6.332014 6.574449,-11.862308 12.903587,-15.036496 1.831686,-0.932618 5.184331,-2.045222 7.359459,-2.437901 l 1.635438,-0.310873 c 0,0 2.520287,-0.238368 3.1891,-0.238368 0.619461,0 3.189098,0.238368 3.189098,0.238368 l 1.635439,0.310873 c 5.331517,0.981707 10.401363,3.599594 14.032032,7.215552 1.717203,1.717986 2.502221,2.68333 3.761503,4.695836 3.467123,5.546646 4.481092,12.713109 2.649405,18.996043 -0.212607,0.736279 -0.307705,1.462255 -0.310736,1.456194 0.0013,0.004 0.266051,0.08632 0.490632,0.130896 1.320264,0.262203 9.87803,1.652543 15.7656,3.043292 2.158773,0.507223 7.866447,2.307015 10.106997,3.190553 0.65417,0.261792 1.50531,0.457912 1.50531,0.474495 L 105.83269,0 H 0.01994057 Z"
       sodipodi:nodetypes="ccccsccccccccccccsccsccc" />
    <ellipse
       style="fill:none;fill-opacity:0;stroke:#000000;stroke-width:1.32289;stroke-linecap:round;stroke-linejoin:round"
       id="path1"
       cx="36.417133"
       cy="13.431921"
       rx="5.2903724"
       ry="5.2927318" />
    <path
       style="fill:none;fill-opacity:0;stroke:#000000;stroke-width:1.32289;stroke-linecap:round;stroke-linejoin:round"
       d="m 44.352688,13.431917 5.290373,5.292725 5.290372,-5.292725"
       id="path2" />
    <path
       style="fill:none;fill-opacity:0;stroke:#000000;stroke-width:1.32289;stroke-linecap:round;stroke-linejoin:round"
       d="m 49.643061,8.139182 v 5.292735"
       id="path3" />
    <path
       style="fill:none;fill-opacity:0;stroke:#000000;stroke-width:1.32289;stroke-linecap:round;stroke-linejoin:round"
       d="M 52.288247,13.431917 53.610841,9.462368"
       id="path4" />
    <path
       style="fill:none;fill-opacity:0;stroke:#000000;stroke-width:1.32289;stroke-linecap:round;stroke-linejoin:round"
       d="M 46.997874,13.431917 45.675282,9.462368"
       id="path5" />
    <ellipse
       style="fill:none;fill-opacity:0;stroke:#000000;stroke-width:1.32289;stroke-linecap:round;stroke-linejoin:round"
       id="path7"
       cx="62.868988"
       cy="12.108732"
       rx="1.3225931"
       ry="1.3231829" />
    <path
       style="fill:none;fill-opacity:0;stroke:#000000;stroke-width:1.32289;stroke-linecap:round;stroke-linejoin:round"
       d="M 57.578621,16.07828 H 68.159363"
       id="path8" />
    <ellipse
       style="fill:none;fill-opacity:0;stroke:#000000;stroke-width:1.32289;stroke-linecap:round;stroke-linejoin:round"
       id="path10"
       cx="72.788445"
       cy="15.469616"
       rx="2.0103416"
       ry="2.0112381" />
    <path
       style="fill:none;fill-opacity:0;stroke:#000000;stroke-width:1.32289;stroke-linecap:round;stroke-linejoin:round"
       d="M 70.804552,9.488833 H 74.77233"
       id="path11" />
    <ellipse
       style="fill:none;fill-opacity:0;stroke:#000000;stroke-width:1.32289;stroke-linecap:round;stroke-linejoin:round"
       id="path12"
       cx="79.401413"
       cy="18.063063"
       rx="0.68774843"
       ry="0.68805516" />
    <path
       style="fill:none;fill-opacity:0;stroke:#000000;stroke-width:1.32289;stroke-linecap:round;stroke-linejoin:round"
       d="m 79.401407,8.165648 v 7.251038"
       id="path13" />
    <ellipse
       style="fill:none;fill-opacity:0;stroke:#000000;stroke-width:1.32289;stroke-linecap:round;stroke-linejoin:round"
       id="path14"
       cx="26.497684"
       cy="8.8007774"
       rx="0.68774843"
       ry="0.68805516" />
    <path
       style="fill:none;fill-opacity:0;stroke:#000000;stroke-width:1.32289;stroke-linecap:round;stroke-linejoin:round"
       d="M 26.497682,18.751108 V 11.447137"
       id="path15" />
  </g>
</svg>
